<svg xmlns="http://www.w3.org/2000/svg" xmlns:xlink="http://www.w3.org/1999/xlink" width="1082" height="638" fill="#000" fill-opacity="1" stroke="#000" stroke-dasharray="none" stroke-dashoffset="0" stroke-linecap="square" stroke-linejoin="miter" stroke-miterlimit="10" stroke-opacity="1" stroke-width="1" color-interpolation="auto" color-rendering="auto" font-family="'Dialog'" font-size="12" font-style="normal" font-weight="normal" image-rendering="auto" shape-rendering="auto" text-rendering="auto"><g><defs id="defs1"><clipPath id="clipPath1" clipPathUnits="userSpaceOnUse"><path d="M0 0 L1082 0 L1082 638 L0 638 L0 0 Z"/></clipPath><clipPath id="clipPath2" clipPathUnits="userSpaceOnUse"><path d="M159 -118 L1241 -118 L1241 520 L159 520 L159 -118 Z"/></clipPath></defs><g fill="#fff" stroke="#fff" shape-rendering="geometricPrecision" text-rendering="geometricPrecision" transform="translate(-159,118)"><rect width="1082" height="638" x="159" y="-118" stroke="none" clip-path="url(#clipPath2)"/></g><g fill="#FF9" stroke="#FF9" shape-rendering="geometricPrecision" text-rendering="geometricPrecision" transform="matrix(1,0,0,1,-159,118)"><ellipse cx="766" cy="144" stroke="none" clip-path="url(#clipPath2)" rx="90" ry="30.5"/></g><g stroke-linecap="butt" stroke-miterlimit="1.45" font-family="sans-serif" font-size="13" shape-rendering="geometricPrecision" text-rendering="geometricPrecision" transform="matrix(1,0,0,1,-159,118)"><text x="731.12" y="141.258" stroke="none" clip-path="url(#clipPath2)" xml:space="preserve">Heptathlon</text><text x="716.749" y="156.568" stroke="none" clip-path="url(#clipPath2)" xml:space="preserve">&lt;Competition&gt;</text><ellipse cx="766" cy="144" fill="none" clip-path="url(#clipPath2)" rx="90" ry="30.5"/></g><g fill="#FF9" stroke="#FF9" shape-rendering="geometricPrecision" text-rendering="geometricPrecision" transform="matrix(1,0,0,1,-159,118)"><ellipse cx="390" cy="264.5" stroke="none" clip-path="url(#clipPath2)" rx="90" ry="30.5"/></g><g stroke-linecap="butt" stroke-miterlimit="1.45" font-family="sans-serif" font-size="13" shape-rendering="geometricPrecision" text-rendering="geometricPrecision" transform="matrix(1,0,0,1,-159,118)"><text x="345.17" y="261.758" stroke="none" clip-path="url(#clipPath2)" xml:space="preserve">100m Hurdles</text><text x="340.748" y="277.068" stroke="none" clip-path="url(#clipPath2)" xml:space="preserve">&lt;Competition&gt;</text><ellipse cx="390" cy="264.5" fill="none" clip-path="url(#clipPath2)" rx="90" ry="30.5"/></g><g fill="#FF9" stroke="#FF9" shape-rendering="geometricPrecision" text-rendering="geometricPrecision" transform="matrix(1,0,0,1,-159,118)"><ellipse cx="766" cy="264.5" stroke="none" clip-path="url(#clipPath2)" rx="90" ry="30.5"/></g><g stroke-linecap="butt" stroke-miterlimit="1.45" font-family="sans-serif" font-size="13" shape-rendering="geometricPrecision" text-rendering="geometricPrecision" transform="matrix(1,0,0,1,-159,118)"><text x="732.986" y="261.758" stroke="none" clip-path="url(#clipPath2)" xml:space="preserve">High Jump</text><text x="716.749" y="277.068" stroke="none" clip-path="url(#clipPath2)" xml:space="preserve">&lt;Competition&gt;</text><ellipse cx="766" cy="264.5" fill="none" clip-path="url(#clipPath2)" rx="90" ry="30.5"/></g><g fill="#FF9" stroke="#FF9" shape-rendering="geometricPrecision" text-rendering="geometricPrecision" transform="matrix(1,0,0,1,-159,118)"><ellipse cx="1093.917" cy="264.5" stroke="none" clip-path="url(#clipPath2)" rx="90" ry="30.5"/></g><g stroke-linecap="butt" stroke-miterlimit="1.45" font-family="sans-serif" font-size="13" shape-rendering="geometricPrecision" text-rendering="geometricPrecision" transform="matrix(1,0,0,1,-159,118)"><text x="1075.519" y="261.758" stroke="none" clip-path="url(#clipPath2)" xml:space="preserve">800m</text><text x="1044.666" y="277.068" stroke="none" clip-path="url(#clipPath2)" xml:space="preserve">&lt;Competition&gt;</text><ellipse cx="1093.917" cy="264.5" fill="none" clip-path="url(#clipPath2)" rx="90" ry="30.5"/></g><g fill="#FC9" stroke="#FC9" shape-rendering="geometricPrecision" text-rendering="geometricPrecision" transform="matrix(1,0,0,1,-159,118)"><ellipse cx="253.364" cy="379.5" stroke="none" clip-path="url(#clipPath2)" rx="63" ry="25"/></g><g stroke-linecap="butt" stroke-miterlimit="1.45" font-family="sans-serif" font-size="13" shape-rendering="geometricPrecision" text-rendering="geometricPrecision" transform="matrix(1,0,0,1,-159,118)"><text x="201.729" y="376.758" stroke="none" clip-path="url(#clipPath2)" xml:space="preserve">100mH - Heat 1</text><text x="222.768" y="392.068" stroke="none" clip-path="url(#clipPath2)" xml:space="preserve">&lt;Round&gt;</text><ellipse cx="253.364" cy="379.5" fill="none" clip-path="url(#clipPath2)" rx="63" ry="25"/></g><g fill="#FC9" stroke="#FC9" shape-rendering="geometricPrecision" text-rendering="geometricPrecision" transform="matrix(1,0,0,1,-159,118)"><ellipse cx="390" cy="379.5" stroke="none" clip-path="url(#clipPath2)" rx="63" ry="25"/></g><g stroke-linecap="butt" stroke-miterlimit="1.45" font-family="sans-serif" font-size="13" shape-rendering="geometricPrecision" text-rendering="geometricPrecision" transform="matrix(1,0,0,1,-159,118)"><text x="338.365" y="376.758" stroke="none" clip-path="url(#clipPath2)" xml:space="preserve">100mH - Heat 2</text><text x="359.404" y="392.068" stroke="none" clip-path="url(#clipPath2)" xml:space="preserve">&lt;Round&gt;</text><ellipse cx="390" cy="379.5" fill="none" clip-path="url(#clipPath2)" rx="63" ry="25"/></g><g fill="#FC9" stroke="#FC9" shape-rendering="geometricPrecision" text-rendering="geometricPrecision" transform="matrix(1,0,0,1,-159,118)"><ellipse cx="526.636" cy="379.5" stroke="none" clip-path="url(#clipPath2)" rx="63" ry="25"/></g><g stroke-linecap="butt" stroke-miterlimit="1.45" font-family="sans-serif" font-size="13" shape-rendering="geometricPrecision" text-rendering="geometricPrecision" transform="matrix(1,0,0,1,-159,118)"><text x="475.001" y="376.758" stroke="none" clip-path="url(#clipPath2)" xml:space="preserve">100mH - Heat 3</text><text x="496.041" y="392.068" stroke="none" clip-path="url(#clipPath2)" xml:space="preserve">&lt;Round&gt;</text><ellipse cx="526.636" cy="379.5" fill="none" clip-path="url(#clipPath2)" rx="63" ry="25"/></g><g fill="#FC9" stroke="#FC9" shape-rendering="geometricPrecision" text-rendering="geometricPrecision" transform="matrix(1,0,0,1,-159,118)"><ellipse cx="690" cy="379.5" stroke="none" clip-path="url(#clipPath2)" rx="63" ry="25"/></g><g stroke-linecap="butt" stroke-miterlimit="1.45" font-family="sans-serif" font-size="13" shape-rendering="geometricPrecision" text-rendering="geometricPrecision" transform="matrix(1,0,0,1,-159,118)"><text x="649.312" y="376.758" stroke="none" clip-path="url(#clipPath2)" xml:space="preserve">HJ - Group A</text><text x="659.404" y="392.068" stroke="none" clip-path="url(#clipPath2)" xml:space="preserve">&lt;Round&gt;</text><ellipse cx="690" cy="379.5" fill="none" clip-path="url(#clipPath2)" rx="63" ry="25"/></g><g fill="#FC9" stroke="#FC9" shape-rendering="geometricPrecision" text-rendering="geometricPrecision" transform="matrix(1,0,0,1,-159,118)"><ellipse cx="826" cy="379.5" stroke="none" clip-path="url(#clipPath2)" rx="63" ry="25"/></g><g stroke-linecap="butt" stroke-miterlimit="1.45" font-family="sans-serif" font-size="13" shape-rendering="geometricPrecision" text-rendering="geometricPrecision" transform="matrix(1,0,0,1,-159,118)"><text x="786.057" y="376.758" stroke="none" clip-path="url(#clipPath2)" xml:space="preserve">HJ - Group B</text><text x="795.404" y="392.068" stroke="none" clip-path="url(#clipPath2)" xml:space="preserve">&lt;Round&gt;</text><ellipse cx="826" cy="379.5" fill="none" clip-path="url(#clipPath2)" rx="63" ry="25"/></g><g fill="#FC9" stroke="#FC9" shape-rendering="geometricPrecision" text-rendering="geometricPrecision" transform="matrix(1,0,0,1,-159,118)"><ellipse cx="1020" cy="379.5" stroke="none" clip-path="url(#clipPath2)" rx="63" ry="25"/></g><g stroke-linecap="butt" stroke-miterlimit="1.45" font-family="sans-serif" font-size="13" shape-rendering="geometricPrecision" text-rendering="geometricPrecision" transform="matrix(1,0,0,1,-159,118)"><text x="973.142" y="376.758" stroke="none" clip-path="url(#clipPath2)" xml:space="preserve">800m - Heat 1</text><text x="989.404" y="392.068" stroke="none" clip-path="url(#clipPath2)" xml:space="preserve">&lt;Round&gt;</text><ellipse cx="1020" cy="379.5" fill="none" clip-path="url(#clipPath2)" rx="63" ry="25"/></g><g fill="#FC9" stroke="#FC9" shape-rendering="geometricPrecision" text-rendering="geometricPrecision" transform="matrix(1,0,0,1,-159,118)"><ellipse cx="1153.917" cy="379.5" stroke="none" clip-path="url(#clipPath2)" rx="63" ry="25"/></g><g stroke-linecap="butt" stroke-miterlimit="1.45" font-family="sans-serif" font-size="13" shape-rendering="geometricPrecision" text-rendering="geometricPrecision" transform="matrix(1,0,0,1,-159,118)"><text x="1107.059" y="376.758" stroke="none" clip-path="url(#clipPath2)" xml:space="preserve">800m - Heat 2</text><text x="1123.322" y="392.068" stroke="none" clip-path="url(#clipPath2)" xml:space="preserve">&lt;Round&gt;</text><ellipse cx="1153.917" cy="379.5" fill="none" clip-path="url(#clipPath2)" rx="63" ry="25"/></g><g fill="#FF9" stroke="#FF9" shape-rendering="geometricPrecision" text-rendering="geometricPrecision" transform="matrix(1,0,0,1,-159,118)"><ellipse cx="766" cy="-72" stroke="none" clip-path="url(#clipPath2)" rx="90" ry="30.5"/></g><g stroke-linecap="butt" stroke-miterlimit="1.45" font-family="sans-serif" font-size="13" shape-rendering="geometricPrecision" text-rendering="geometricPrecision" transform="matrix(1,0,0,1,-159,118)"><text x="685.582" y="-74.742" stroke="none" clip-path="url(#clipPath2)" xml:space="preserve">European Championships</text><text x="698.153" y="-59.432" stroke="none" clip-path="url(#clipPath2)" xml:space="preserve">&lt;CompetitionSeries&gt;</text><ellipse cx="766" cy="-72" fill="none" clip-path="url(#clipPath2)" rx="90" ry="30.5"/></g><g fill="#FF9" stroke="#FF9" shape-rendering="geometricPrecision" text-rendering="geometricPrecision" transform="matrix(1,0,0,1,-159,118)"><ellipse cx="766" cy="23.5" stroke="none" clip-path="url(#clipPath2)" rx="90" ry="30.5"/></g><g stroke-linecap="butt" stroke-miterlimit="1.45" font-family="sans-serif" font-size="13" shape-rendering="geometricPrecision" text-rendering="geometricPrecision" transform="matrix(1,0,0,1,-159,118)"><text x="711.175" y="20.758" stroke="none" clip-path="url(#clipPath2)" xml:space="preserve">Amsterdam 2016</text><text x="716.749" y="36.068" stroke="none" clip-path="url(#clipPath2)" xml:space="preserve">&lt;Competition&gt;</text><ellipse cx="766" cy="23.5" fill="none" clip-path="url(#clipPath2)" rx="90" ry="30.5"/></g><g fill="#FC9" stroke="#FC9" shape-rendering="geometricPrecision" text-rendering="geometricPrecision" transform="matrix(1,0,0,1,-159,118)"><ellipse cx="253.364" cy="480" stroke="none" clip-path="url(#clipPath2)" rx="63" ry="25"/></g><g stroke-linecap="butt" stroke-miterlimit="1.45" font-family="sans-serif" font-size="11" shape-rendering="geometricPrecision" text-rendering="geometricPrecision" transform="matrix(1,0,0,1,-159,118)"><text x="209.673" y="477.68" stroke="none" clip-path="url(#clipPath2)" xml:space="preserve">100mH - Heat 1</text><text x="184.09" y="490.635" stroke="none" clip-path="url(#clipPath2)" xml:space="preserve">&lt;UnitTimedCompetition&gt;</text><ellipse cx="253.364" cy="480" fill="none" clip-path="url(#clipPath2)" rx="63" ry="25"/></g><g fill="#FC9" stroke="#FC9" shape-rendering="geometricPrecision" text-rendering="geometricPrecision" transform="matrix(1,0,0,1,-159,118)"><ellipse cx="390" cy="480" stroke="none" clip-path="url(#clipPath2)" rx="63" ry="25"/></g><g stroke-linecap="butt" stroke-miterlimit="1.45" font-family="sans-serif" font-size="11" shape-rendering="geometricPrecision" text-rendering="geometricPrecision" transform="matrix(1,0,0,1,-159,118)"><text x="346.309" y="477.68" stroke="none" clip-path="url(#clipPath2)" xml:space="preserve">100mH - Heat 2</text><text x="320.726" y="490.635" stroke="none" clip-path="url(#clipPath2)" xml:space="preserve">&lt;UnitTimedCompetition&gt;</text><ellipse cx="390" cy="480" fill="none" clip-path="url(#clipPath2)" rx="63" ry="25"/></g><g fill="#FC9" stroke="#FC9" shape-rendering="geometricPrecision" text-rendering="geometricPrecision" transform="matrix(1,0,0,1,-159,118)"><ellipse cx="526.636" cy="480" stroke="none" clip-path="url(#clipPath2)" rx="63" ry="25"/></g><g stroke-linecap="butt" stroke-miterlimit="1.45" font-family="sans-serif" font-size="11" shape-rendering="geometricPrecision" text-rendering="geometricPrecision" transform="matrix(1,0,0,1,-159,118)"><text x="482.945" y="477.68" stroke="none" clip-path="url(#clipPath2)" xml:space="preserve">100mH - Heat 3</text><text x="457.363" y="490.635" stroke="none" clip-path="url(#clipPath2)" xml:space="preserve">&lt;UnitTimedCompetition&gt;</text><ellipse cx="526.636" cy="480" fill="none" clip-path="url(#clipPath2)" rx="63" ry="25"/></g><g fill="#FC9" stroke="#FC9" shape-rendering="geometricPrecision" text-rendering="geometricPrecision" transform="matrix(1,0,0,1,-159,118)"><ellipse cx="690" cy="480" stroke="none" clip-path="url(#clipPath2)" rx="63" ry="25"/></g><g stroke-linecap="butt" stroke-miterlimit="1.45" font-family="sans-serif" font-size="11" shape-rendering="geometricPrecision" text-rendering="geometricPrecision" transform="matrix(1,0,0,1,-159,118)"><text x="655.571" y="477.68" stroke="none" clip-path="url(#clipPath2)" xml:space="preserve">HJ - Group A</text><text x="624.8" y="490.635" stroke="none" clip-path="url(#clipPath2)" xml:space="preserve">&lt;UnitFieldCompetition&gt;</text><ellipse cx="690" cy="480" fill="none" clip-path="url(#clipPath2)" rx="63" ry="25"/></g><g fill="#FC9" stroke="#FC9" shape-rendering="geometricPrecision" text-rendering="geometricPrecision" transform="matrix(1,0,0,1,-159,118)"><ellipse cx="826" cy="480" stroke="none" clip-path="url(#clipPath2)" rx="63" ry="25"/></g><g stroke-linecap="butt" stroke-miterlimit="1.45" font-family="sans-serif" font-size="11" shape-rendering="geometricPrecision" text-rendering="geometricPrecision" transform="matrix(1,0,0,1,-159,118)"><text x="792.202" y="477.68" stroke="none" clip-path="url(#clipPath2)" xml:space="preserve">HJ - Group B</text><text x="760.8" y="490.635" stroke="none" clip-path="url(#clipPath2)" xml:space="preserve">&lt;UnitFieldCompetition&gt;</text><ellipse cx="826" cy="480" fill="none" clip-path="url(#clipPath2)" rx="63" ry="25"/></g><g fill="#FC9" stroke="#FC9" shape-rendering="geometricPrecision" text-rendering="geometricPrecision" transform="matrix(1,0,0,1,-159,118)"><ellipse cx="1020" cy="480" stroke="none" clip-path="url(#clipPath2)" rx="63" ry="25"/></g><g stroke-linecap="butt" stroke-miterlimit="1.45" font-family="sans-serif" font-size="11" shape-rendering="geometricPrecision" text-rendering="geometricPrecision" transform="matrix(1,0,0,1,-159,118)"><text x="980.351" y="477.68" stroke="none" clip-path="url(#clipPath2)" xml:space="preserve">800m - Heat 1</text><text x="950.726" y="490.635" stroke="none" clip-path="url(#clipPath2)" xml:space="preserve">&lt;UnitTimedCompetition&gt;</text><ellipse cx="1020" cy="480" fill="none" clip-path="url(#clipPath2)" rx="63" ry="25"/></g><g fill="#FC9" stroke="#FC9" shape-rendering="geometricPrecision" text-rendering="geometricPrecision" transform="matrix(1,0,0,1,-159,118)"><ellipse cx="1153.917" cy="480" stroke="none" clip-path="url(#clipPath2)" rx="63" ry="25"/></g><g stroke-linecap="butt" stroke-miterlimit="1.45" font-family="sans-serif" font-size="11" shape-rendering="geometricPrecision" text-rendering="geometricPrecision" transform="matrix(1,0,0,1,-159,118)"><text x="1114.268" y="477.68" stroke="none" clip-path="url(#clipPath2)" xml:space="preserve">800m - Heat 2</text><text x="1084.644" y="490.635" stroke="none" clip-path="url(#clipPath2)" xml:space="preserve">&lt;UnitTimedCompetition&gt;</text><ellipse cx="1153.917" cy="480" fill="none" clip-path="url(#clipPath2)" rx="63" ry="25"/><path fill="none" d="M700.609 164.9564 L463.0093 241.1021" clip-path="url(#clipPath2)"/><path stroke="none" d="M455.391 243.5436 L468.3445 244.6428 L463.9616 240.7969 L465.2925 235.1199 Z" clip-path="url(#clipPath2)"/><text x="530.582" y="184.073" stroke="none" clip-path="url(#clipPath2)" font-size="12" xml:space="preserve">subEvent</text><path fill="none" d="M766 174.5 L766 226" clip-path="url(#clipPath2)"/><path stroke="none" d="M766 234 L771 222 L766 225 L761 222 Z" clip-path="url(#clipPath2)"/><text x="709.773" y="208.785" stroke="none" clip-path="url(#clipPath2)" font-size="12" xml:space="preserve">subEvent</text><path fill="none" d="M827.0146 166.4211 L1025.3937 239.3196" clip-path="url(#clipPath2)"/><path stroke="none" d="M1032.9027 242.0789 L1023.3637 233.2467 L1024.4551 238.9747 L1019.9146 242.6331 Z" clip-path="url(#clipPath2)"/><text x="967.258" y="200.168" stroke="none" clip-path="url(#clipPath2)" font-size="12" xml:space="preserve">subEvent</text><path fill="none" d="M356.3843 292.7926 L286.3513 351.7359" clip-path="url(#clipPath2)"/><path stroke="none" d="M280.2307 356.8874 L292.6313 352.9856 L287.1164 351.092 L286.192 345.3348 Z" clip-path="url(#clipPath2)"/><text x="281.732" y="306.333" stroke="none" clip-path="url(#clipPath2)" font-size="12" xml:space="preserve">round</text><path fill="none" d="M390 295 L390 346.5" clip-path="url(#clipPath2)"/><path stroke="none" d="M390 354.5 L395 342.5 L390 345.5 L385 342.5 Z" clip-path="url(#clipPath2)"/><text x="402.636" y="329.285" stroke="none" clip-path="url(#clipPath2)" font-size="12" xml:space="preserve">round</text><path fill="none" d="M423.6157 292.7926 L493.6487 351.7359" clip-path="url(#clipPath2)"/><path stroke="none" d="M499.7693 356.8874 L493.808 345.3348 L492.8836 351.092 L487.3687 352.9856 Z" clip-path="url(#clipPath2)"/><text x="463.539" y="306.333" stroke="none" clip-path="url(#clipPath2)" font-size="12" xml:space="preserve">round</text><path fill="none" d="M746.3307 294.2627 L710.3921 348.6435" clip-path="url(#clipPath2)"/><path stroke="none" d="M705.9813 355.3177 L716.7689 348.0631 L710.9434 347.8093 L708.4261 342.5497 Z" clip-path="url(#clipPath2)"/><text x="673.96" y="327.62" stroke="none" clip-path="url(#clipPath2)" font-size="12" xml:space="preserve">round</text><path fill="none" d="M781.67 294.5341 L809.5269 347.9265" clip-path="url(#clipPath2)"/><path stroke="none" d="M813.2274 355.0192 L812.1095 342.0673 L809.0643 347.0399 L803.2437 346.693 Z" clip-path="url(#clipPath2)"/><text x="813.908" y="329.285" stroke="none" clip-path="url(#clipPath2)" font-size="12" xml:space="preserve">round</text><path fill="none" d="M1074.7623 294.3012 L1039.8961 348.5458" clip-path="url(#clipPath2)"/><path stroke="none" d="M1035.5704 355.2755 L1046.265 347.8845 L1040.4368 347.7046 L1037.8529 342.4774 Z" clip-path="url(#clipPath2)"/><text x="1003.029" y="327.939" stroke="none" clip-path="url(#clipPath2)" font-size="12" xml:space="preserve">round</text><path fill="none" d="M1109.5874 294.5341 L1137.4442 347.9265" clip-path="url(#clipPath2)"/><path stroke="none" d="M1141.1448 355.0192 L1140.0269 342.0673 L1136.9817 347.0399 L1131.161 346.693 Z" clip-path="url(#clipPath2)"/><text x="1141.826" y="329.285" stroke="none" clip-path="url(#clipPath2)" font-size="12" xml:space="preserve">round</text><path fill="none" d="M766 -7 L766 -33.5" clip-path="url(#clipPath2)"/><path stroke="none" d="M766 -41.5 L761 -29.5 L766 -32.5 L771 -29.5 Z" clip-path="url(#clipPath2)"/><text x="780.372" y="-25.715" stroke="none" clip-path="url(#clipPath2)" font-size="12" xml:space="preserve">superEvent</text><path fill="none" d="M766 54 L766 105.5" clip-path="url(#clipPath2)"/><path stroke="none" d="M766 113.5 L771 101.5 L766 104.5 L761 101.5 Z" clip-path="url(#clipPath2)"/><text x="709.773" y="88.285" stroke="none" clip-path="url(#clipPath2)" font-size="12" xml:space="preserve">subEvent</text><path fill="none" d="M253.3636 404.5 L253.3636 447" clip-path="url(#clipPath2)"/><path stroke="none" d="M253.3636 455 L258.3636 443 L253.3636 446 L248.3636 443 Z" clip-path="url(#clipPath2)"/><text x="176.014" y="434.285" stroke="none" clip-path="url(#clipPath2)" font-size="12" xml:space="preserve">unitCompetition</text><path fill="none" d="M390 404.5 L390 447" clip-path="url(#clipPath2)"/><path stroke="none" d="M390 455 L395 443 L390 446 L385 443 Z" clip-path="url(#clipPath2)"/><text x="312.65" y="434.285" stroke="none" clip-path="url(#clipPath2)" font-size="12" xml:space="preserve">unitCompetition</text><path fill="none" d="M526.6364 404.5 L526.6364 447" clip-path="url(#clipPath2)"/><path stroke="none" d="M526.6364 455 L531.6364 443 L526.6364 446 L521.6364 443 Z" clip-path="url(#clipPath2)"/><text x="449.287" y="434.285" stroke="none" clip-path="url(#clipPath2)" font-size="12" xml:space="preserve">unitCompetition</text><path fill="none" d="M690 404.5 L690 447" clip-path="url(#clipPath2)"/><path stroke="none" d="M690 455 L695 443 L690 446 L685 443 Z" clip-path="url(#clipPath2)"/><text x="612.65" y="434.285" stroke="none" clip-path="url(#clipPath2)" font-size="12" xml:space="preserve">unitCompetition</text><path fill="none" d="M826 404.5 L826 447" clip-path="url(#clipPath2)"/><path stroke="none" d="M826 455 L831 443 L826 446 L821 443 Z" clip-path="url(#clipPath2)"/><text x="748.65" y="434.285" stroke="none" clip-path="url(#clipPath2)" font-size="12" xml:space="preserve">unitCompetition</text><path fill="none" d="M1020 404.5 L1020 447" clip-path="url(#clipPath2)"/><path stroke="none" d="M1020 455 L1025 443 L1020 446 L1015 443 Z" clip-path="url(#clipPath2)"/><text x="942.65" y="434.285" stroke="none" clip-path="url(#clipPath2)" font-size="12" xml:space="preserve">unitCompetition</text><path fill="none" d="M1153.9174 404.5 L1153.9174 447" clip-path="url(#clipPath2)"/><path stroke="none" d="M1153.9174 455 L1158.9174 443 L1153.9174 446 L1148.9174 443 Z" clip-path="url(#clipPath2)"/><text x="1076.568" y="434.285" stroke="none" clip-path="url(#clipPath2)" font-size="12" xml:space="preserve">unitCompetition</text></g></g></svg>