<svg xmlns="http://www.w3.org/2000/svg" xmlns:xlink="http://www.w3.org/1999/xlink" width="1792" height="577" fill="#000" fill-opacity="1" stroke="#000" stroke-dasharray="none" stroke-dashoffset="0" stroke-linecap="square" stroke-linejoin="miter" stroke-miterlimit="10" stroke-opacity="1" stroke-width="1" color-interpolation="auto" color-rendering="auto" font-family="'Dialog'" font-size="12" font-style="normal" font-weight="normal" image-rendering="auto" shape-rendering="auto" text-rendering="auto"><g><defs id="defs1"><clipPath id="clipPath1" clipPathUnits="userSpaceOnUse"><path d="M0 0 L1792 0 L1792 577 L0 577 L0 0 Z"/></clipPath><clipPath id="clipPath2" clipPathUnits="userSpaceOnUse"><path d="M-55 430 L1737 430 L1737 1007 L-55 1007 L-55 430 Z"/></clipPath></defs><g fill="#fff" stroke="#fff" shape-rendering="geometricPrecision" text-rendering="geometricPrecision" transform="translate(55,-430)"><rect width="1792" height="577" x="-55" y="430" stroke="none" clip-path="url(#clipPath2)"/></g><g fill="#FF9" stroke="#FF9" shape-rendering="geometricPrecision" text-rendering="geometricPrecision" transform="matrix(1,0,0,1,55,-430)"><ellipse cx="825.846" cy="480" stroke="none" clip-path="url(#clipPath2)" rx="115.25" ry="35"/></g><g stroke-linecap="butt" stroke-miterlimit="1.45" font-family="sans-serif" font-size="13" shape-rendering="geometricPrecision" text-rendering="geometricPrecision" transform="matrix(1,0,0,1,55,-430)"><text x="723.76" y="477.258" stroke="none" clip-path="url(#clipPath2)" xml:space="preserve">Jaffa Ekiden Maraton Relay 2017</text><text x="776.594" y="492.568" stroke="none" clip-path="url(#clipPath2)" xml:space="preserve">&lt;Competition&gt;</text><ellipse cx="825.846" cy="480" fill="none" clip-path="url(#clipPath2)" rx="115.25" ry="35"/></g><g fill="#FF9" stroke="#FF9" shape-rendering="geometricPrecision" text-rendering="geometricPrecision" transform="matrix(1,0,0,1,55,-430)"><ellipse cx="299" cy="662.596" stroke="none" clip-path="url(#clipPath2)" rx="105.25" ry="35"/></g><g stroke-linecap="butt" stroke-miterlimit="1.45" font-family="sans-serif" font-size="13" shape-rendering="geometricPrecision" text-rendering="geometricPrecision" transform="matrix(1,0,0,1,55,-430)"><text x="204.712" y="659.854" stroke="none" clip-path="url(#clipPath2)" xml:space="preserve">Jaffa Ekiden Senior Open Race</text><text x="249.749" y="675.164" stroke="none" clip-path="url(#clipPath2)" xml:space="preserve">&lt;Competition&gt;</text><ellipse cx="299" cy="662.596" fill="none" clip-path="url(#clipPath2)" rx="105.25" ry="35"/></g><g fill="#FF9" stroke="#FF9" shape-rendering="geometricPrecision" text-rendering="geometricPrecision" transform="matrix(1,0,0,1,55,-430)"><ellipse cx="549.5" cy="662.596" stroke="none" clip-path="url(#clipPath2)" rx="76.25" ry="29.5"/></g><g stroke-linecap="butt" stroke-miterlimit="1.45" font-family="sans-serif" font-size="13" shape-rendering="geometricPrecision" text-rendering="geometricPrecision" transform="matrix(1,0,0,1,55,-430)"><text x="512.493" y="659.854" stroke="none" clip-path="url(#clipPath2)" xml:space="preserve">SEN - Leg 1</text><text x="480.479" y="675.164" stroke="none" clip-path="url(#clipPath2)" xml:space="preserve">&lt;TimedCompetition&gt;</text><ellipse cx="549.5" cy="662.596" fill="none" clip-path="url(#clipPath2)" rx="76.25" ry="29.5"/></g><g fill="#FF9" stroke="#FF9" shape-rendering="geometricPrecision" text-rendering="geometricPrecision" transform="matrix(1,0,0,1,55,-430)"><ellipse cx="549.5" cy="760.861" stroke="none" clip-path="url(#clipPath2)" rx="76.25" ry="29.5"/></g><g stroke-linecap="butt" stroke-miterlimit="1.45" font-family="sans-serif" font-size="13" shape-rendering="geometricPrecision" text-rendering="geometricPrecision" transform="matrix(1,0,0,1,55,-430)"><text x="512.493" y="758.119" stroke="none" clip-path="url(#clipPath2)" xml:space="preserve">SEN - Leg 2</text><text x="480.479" y="773.429" stroke="none" clip-path="url(#clipPath2)" xml:space="preserve">&lt;TimedCompetition&gt;</text><ellipse cx="549.5" cy="760.861" fill="none" clip-path="url(#clipPath2)" rx="76.25" ry="29.5"/></g><g fill="#FF9" stroke="#FF9" shape-rendering="geometricPrecision" text-rendering="geometricPrecision" transform="matrix(1,0,0,1,55,-430)"><ellipse cx="549.5" cy="859.126" stroke="none" clip-path="url(#clipPath2)" rx="76.25" ry="29.5"/></g><g stroke-linecap="butt" stroke-miterlimit="1.45" font-family="sans-serif" font-size="13" shape-rendering="geometricPrecision" text-rendering="geometricPrecision" transform="matrix(1,0,0,1,55,-430)"><text x="512.493" y="856.384" stroke="none" clip-path="url(#clipPath2)" xml:space="preserve">SEN - Leg 3</text><text x="480.479" y="871.694" stroke="none" clip-path="url(#clipPath2)" xml:space="preserve">&lt;TimedCompetition&gt;</text><ellipse cx="549.5" cy="859.126" fill="none" clip-path="url(#clipPath2)" rx="76.25" ry="29.5"/></g><g fill="#FF9" stroke="#FF9" shape-rendering="geometricPrecision" text-rendering="geometricPrecision" transform="matrix(1,0,0,1,55,-430)"><ellipse cx="549.5" cy="950.192" stroke="none" clip-path="url(#clipPath2)" rx="76.25" ry="29.5"/></g><g stroke-linecap="butt" stroke-miterlimit="1.45" font-family="sans-serif" font-size="13" shape-rendering="geometricPrecision" text-rendering="geometricPrecision" transform="matrix(1,0,0,1,55,-430)"><text x="512.493" y="947.45" stroke="none" clip-path="url(#clipPath2)" xml:space="preserve">SEN - Leg 6</text><text x="480.479" y="962.76" stroke="none" clip-path="url(#clipPath2)" xml:space="preserve">&lt;TimedCompetition&gt;</text><ellipse cx="549.5" cy="950.192" fill="none" clip-path="url(#clipPath2)" rx="76.25" ry="29.5"/></g><g fill="#FF9" stroke="#FF9" shape-rendering="geometricPrecision" text-rendering="geometricPrecision" transform="matrix(1,0,0,1,55,-430)"><ellipse cx="48.5" cy="740.346" stroke="none" clip-path="url(#clipPath2)" rx="76.25" ry="29.5"/></g><g stroke-linecap="butt" stroke-miterlimit="1.45" font-family="sans-serif" font-size="13" shape-rendering="geometricPrecision" text-rendering="geometricPrecision" transform="matrix(1,0,0,1,55,-430)"><text x="-2.291" y="737.604" stroke="none" clip-path="url(#clipPath2)" xml:space="preserve">SEN Men&apos;s Open</text><text x="9.925" y="752.914" stroke="none" clip-path="url(#clipPath2)" xml:space="preserve">&lt;Category&gt;</text><ellipse cx="48.5" cy="740.346" fill="none" clip-path="url(#clipPath2)" rx="76.25" ry="29.5"/></g><g fill="#FF9" stroke="#FF9" shape-rendering="geometricPrecision" text-rendering="geometricPrecision" transform="matrix(1,0,0,1,55,-430)"><ellipse cx="48.5" cy="662.596" stroke="none" clip-path="url(#clipPath2)" rx="76.25" ry="29.5"/></g><g stroke-linecap="butt" stroke-miterlimit="1.45" font-family="sans-serif" font-size="13" shape-rendering="geometricPrecision" text-rendering="geometricPrecision" transform="matrix(1,0,0,1,55,-430)"><text x="-7.807" y="659.854" stroke="none" clip-path="url(#clipPath2)" xml:space="preserve">Ekiden Relay Race</text><text x="-37.447" y="675.164" stroke="none" clip-path="url(#clipPath2)" xml:space="preserve">&lt;MediumOrLongDistance&gt;</text><ellipse cx="48.5" cy="662.596" fill="none" clip-path="url(#clipPath2)" rx="76.25" ry="29.5"/></g><g fill="#F99" stroke="#F99" shape-rendering="geometricPrecision" text-rendering="geometricPrecision" transform="matrix(1,0,0,1,55,-430)"><ellipse cx="309.5" cy="950.192" stroke="none" clip-path="url(#clipPath2)" rx="76.25" ry="29.5"/></g><g stroke-linecap="butt" stroke-miterlimit="1.45" font-family="sans-serif" font-size="13" shape-rendering="geometricPrecision" text-rendering="geometricPrecision" transform="matrix(1,0,0,1,55,-430)"><text x="244.014" y="947.45" stroke="none" clip-path="url(#clipPath2)" xml:space="preserve">Men&apos;s Open - Teams</text><text x="265.374" y="962.76" stroke="none" clip-path="url(#clipPath2)" xml:space="preserve">&lt;ResultsList&gt;</text><ellipse cx="309.5" cy="950.192" fill="none" clip-path="url(#clipPath2)" rx="76.25" ry="29.5"/></g><g fill="#F99" stroke="#F99" shape-rendering="geometricPrecision" text-rendering="geometricPrecision" transform="matrix(1,0,0,1,55,-430)"><ellipse cx="129.5" cy="950.192" stroke="none" clip-path="url(#clipPath2)" rx="76.25" ry="29.5"/></g><g stroke-linecap="butt" stroke-miterlimit="1.45" font-family="sans-serif" font-size="13" shape-rendering="geometricPrecision" text-rendering="geometricPrecision" transform="matrix(1,0,0,1,55,-430)"><text x="64.014" y="947.45" stroke="none" clip-path="url(#clipPath2)" xml:space="preserve">Men&apos;s Open - Teams</text><text x="93.464" y="962.76" stroke="none" clip-path="url(#clipPath2)" xml:space="preserve">&lt;StartList&gt;</text><ellipse cx="129.5" cy="950.192" fill="none" clip-path="url(#clipPath2)" rx="76.25" ry="29.5"/></g><g fill="#F99" stroke="#F99" shape-rendering="geometricPrecision" text-rendering="geometricPrecision" transform="matrix(1,0,0,1,55,-430)"><ellipse cx="759.5" cy="662.596" stroke="none" clip-path="url(#clipPath2)" rx="64.75" ry="22.5"/></g><g stroke-linecap="butt" stroke-miterlimit="1.45" font-family="sans-serif" font-size="13" shape-rendering="geometricPrecision" text-rendering="geometricPrecision" transform="matrix(1,0,0,1,55,-430)"><text x="704.317" y="659.854" stroke="none" clip-path="url(#clipPath2)" xml:space="preserve">S1 SEN - Athletes</text><text x="715.374" y="675.164" stroke="none" clip-path="url(#clipPath2)" xml:space="preserve">&lt;ResultsList&gt;</text><ellipse cx="759.5" cy="662.596" fill="none" clip-path="url(#clipPath2)" rx="64.75" ry="22.5"/></g><g fill="#F99" stroke="#F99" shape-rendering="geometricPrecision" text-rendering="geometricPrecision" transform="matrix(1,0,0,1,55,-430)"><ellipse cx="759.5" cy="764.846" stroke="none" clip-path="url(#clipPath2)" rx="64.75" ry="22.5"/></g><g stroke-linecap="butt" stroke-miterlimit="1.45" font-family="sans-serif" font-size="13" shape-rendering="geometricPrecision" text-rendering="geometricPrecision" transform="matrix(1,0,0,1,55,-430)"><text x="704.317" y="762.104" stroke="none" clip-path="url(#clipPath2)" xml:space="preserve">S2 SEN - Athletes</text><text x="715.374" y="777.414" stroke="none" clip-path="url(#clipPath2)" xml:space="preserve">&lt;ResultsList&gt;</text><ellipse cx="759.5" cy="764.846" fill="none" clip-path="url(#clipPath2)" rx="64.75" ry="22.5"/></g><g fill="#F99" stroke="#F99" shape-rendering="geometricPrecision" text-rendering="geometricPrecision" transform="matrix(1,0,0,1,55,-430)"><ellipse cx="759.5" cy="866.846" stroke="none" clip-path="url(#clipPath2)" rx="64.75" ry="22.5"/></g><g stroke-linecap="butt" stroke-miterlimit="1.45" font-family="sans-serif" font-size="13" shape-rendering="geometricPrecision" text-rendering="geometricPrecision" transform="matrix(1,0,0,1,55,-430)"><text x="704.317" y="864.104" stroke="none" clip-path="url(#clipPath2)" xml:space="preserve">S3 SEN - Athletes</text><text x="715.374" y="879.414" stroke="none" clip-path="url(#clipPath2)" xml:space="preserve">&lt;ResultsList&gt;</text><ellipse cx="759.5" cy="866.846" fill="none" clip-path="url(#clipPath2)" rx="64.75" ry="22.5"/></g><g fill="#F99" stroke="#F99" shape-rendering="geometricPrecision" text-rendering="geometricPrecision" transform="matrix(1,0,0,1,55,-430)"><ellipse cx="759.5" cy="968.846" stroke="none" clip-path="url(#clipPath2)" rx="64.75" ry="22.5"/></g><g stroke-linecap="butt" stroke-miterlimit="1.45" font-family="sans-serif" font-size="13" shape-rendering="geometricPrecision" text-rendering="geometricPrecision" transform="matrix(1,0,0,1,55,-430)"><text x="704.317" y="966.104" stroke="none" clip-path="url(#clipPath2)" xml:space="preserve">S6 SEN - Athletes</text><text x="715.374" y="981.414" stroke="none" clip-path="url(#clipPath2)" xml:space="preserve">&lt;ResultsList&gt;</text><ellipse cx="759.5" cy="968.846" fill="none" clip-path="url(#clipPath2)" rx="64.75" ry="22.5"/></g><g fill="#FF9" stroke="#FF9" shape-rendering="geometricPrecision" text-rendering="geometricPrecision" transform="matrix(1,0,0,1,55,-430)"><ellipse cx="1196.189" cy="662.596" stroke="none" clip-path="url(#clipPath2)" rx="105.25" ry="35"/></g><g stroke-linecap="butt" stroke-miterlimit="1.45" font-family="sans-serif" font-size="13" shape-rendering="geometricPrecision" text-rendering="geometricPrecision" transform="matrix(1,0,0,1,55,-430)"><text x="1121.82" y="659.854" stroke="none" clip-path="url(#clipPath2)" xml:space="preserve">Jaffa Ekiden Junior Race</text><text x="1146.937" y="675.164" stroke="none" clip-path="url(#clipPath2)" xml:space="preserve">&lt;Competition&gt;</text><ellipse cx="1196.189" cy="662.596" fill="none" clip-path="url(#clipPath2)" rx="105.25" ry="35"/></g><g fill="#FF9" stroke="#FF9" shape-rendering="geometricPrecision" text-rendering="geometricPrecision" transform="matrix(1,0,0,1,55,-430)"><ellipse cx="1446.689" cy="662.596" stroke="none" clip-path="url(#clipPath2)" rx="76.25" ry="29.5"/></g><g stroke-linecap="butt" stroke-miterlimit="1.45" font-family="sans-serif" font-size="13" shape-rendering="geometricPrecision" text-rendering="geometricPrecision" transform="matrix(1,0,0,1,55,-430)"><text x="1415.376" y="659.854" stroke="none" clip-path="url(#clipPath2)" xml:space="preserve">JR - Leg 1</text><text x="1377.668" y="675.164" stroke="none" clip-path="url(#clipPath2)" xml:space="preserve">&lt;TimedCompetition&gt;</text><ellipse cx="1446.689" cy="662.596" fill="none" clip-path="url(#clipPath2)" rx="76.25" ry="29.5"/></g><g fill="#FF9" stroke="#FF9" shape-rendering="geometricPrecision" text-rendering="geometricPrecision" transform="matrix(1,0,0,1,55,-430)"><ellipse cx="1446.689" cy="760.861" stroke="none" clip-path="url(#clipPath2)" rx="76.25" ry="29.5"/></g><g stroke-linecap="butt" stroke-miterlimit="1.45" font-family="sans-serif" font-size="13" shape-rendering="geometricPrecision" text-rendering="geometricPrecision" transform="matrix(1,0,0,1,55,-430)"><text x="1415.376" y="758.119" stroke="none" clip-path="url(#clipPath2)" xml:space="preserve">JR - Leg 2</text><text x="1377.668" y="773.429" stroke="none" clip-path="url(#clipPath2)" xml:space="preserve">&lt;TimedCompetition&gt;</text><ellipse cx="1446.689" cy="760.861" fill="none" clip-path="url(#clipPath2)" rx="76.25" ry="29.5"/></g><g fill="#FF9" stroke="#FF9" shape-rendering="geometricPrecision" text-rendering="geometricPrecision" transform="matrix(1,0,0,1,55,-430)"><ellipse cx="1446.689" cy="859.126" stroke="none" clip-path="url(#clipPath2)" rx="76.25" ry="29.5"/></g><g stroke-linecap="butt" stroke-miterlimit="1.45" font-family="sans-serif" font-size="13" shape-rendering="geometricPrecision" text-rendering="geometricPrecision" transform="matrix(1,0,0,1,55,-430)"><text x="1415.376" y="856.384" stroke="none" clip-path="url(#clipPath2)" xml:space="preserve">JR - Leg 3</text><text x="1377.668" y="871.694" stroke="none" clip-path="url(#clipPath2)" xml:space="preserve">&lt;TimedCompetition&gt;</text><ellipse cx="1446.689" cy="859.126" fill="none" clip-path="url(#clipPath2)" rx="76.25" ry="29.5"/></g><g fill="#FF9" stroke="#FF9" shape-rendering="geometricPrecision" text-rendering="geometricPrecision" transform="matrix(1,0,0,1,55,-430)"><ellipse cx="1446.689" cy="950.192" stroke="none" clip-path="url(#clipPath2)" rx="76.25" ry="29.5"/></g><g stroke-linecap="butt" stroke-miterlimit="1.45" font-family="sans-serif" font-size="13" shape-rendering="geometricPrecision" text-rendering="geometricPrecision" transform="matrix(1,0,0,1,55,-430)"><text x="1415.376" y="947.45" stroke="none" clip-path="url(#clipPath2)" xml:space="preserve">JR - Leg 4</text><text x="1377.668" y="962.76" stroke="none" clip-path="url(#clipPath2)" xml:space="preserve">&lt;TimedCompetition&gt;</text><ellipse cx="1446.689" cy="950.192" fill="none" clip-path="url(#clipPath2)" rx="76.25" ry="29.5"/></g><g fill="#FF9" stroke="#FF9" shape-rendering="geometricPrecision" text-rendering="geometricPrecision" transform="matrix(1,0,0,1,55,-430)"><ellipse cx="945.689" cy="740.346" stroke="none" clip-path="url(#clipPath2)" rx="76.25" ry="29.5"/></g><g stroke-linecap="butt" stroke-miterlimit="1.45" font-family="sans-serif" font-size="13" shape-rendering="geometricPrecision" text-rendering="geometricPrecision" transform="matrix(1,0,0,1,55,-430)"><text x="912.852" y="737.604" stroke="none" clip-path="url(#clipPath2)" xml:space="preserve">U18 Men&apos;s</text><text x="907.114" y="752.914" stroke="none" clip-path="url(#clipPath2)" xml:space="preserve">&lt;Category&gt;</text><ellipse cx="945.689" cy="740.346" fill="none" clip-path="url(#clipPath2)" rx="76.25" ry="29.5"/></g><g fill="#FF9" stroke="#FF9" shape-rendering="geometricPrecision" text-rendering="geometricPrecision" transform="matrix(1,0,0,1,55,-430)"><ellipse cx="945.689" cy="662.596" stroke="none" clip-path="url(#clipPath2)" rx="76.25" ry="29.5"/></g><g stroke-linecap="butt" stroke-miterlimit="1.45" font-family="sans-serif" font-size="13" shape-rendering="geometricPrecision" text-rendering="geometricPrecision" transform="matrix(1,0,0,1,55,-430)"><text x="876.452" y="659.854" stroke="none" clip-path="url(#clipPath2)" xml:space="preserve">4x1.1 mile Relay Race</text><text x="859.741" y="675.164" stroke="none" clip-path="url(#clipPath2)" xml:space="preserve">&lt;MediumOrLongDistance&gt;</text><ellipse cx="945.689" cy="662.596" fill="none" clip-path="url(#clipPath2)" rx="76.25" ry="29.5"/></g><g fill="#F99" stroke="#F99" shape-rendering="geometricPrecision" text-rendering="geometricPrecision" transform="matrix(1,0,0,1,55,-430)"><ellipse cx="1206.689" cy="950.192" stroke="none" clip-path="url(#clipPath2)" rx="76.25" ry="29.5"/></g><g stroke-linecap="butt" stroke-miterlimit="1.45" font-family="sans-serif" font-size="13" shape-rendering="geometricPrecision" text-rendering="geometricPrecision" transform="matrix(1,0,0,1,55,-430)"><text x="1165.308" y="947.45" stroke="none" clip-path="url(#clipPath2)" xml:space="preserve">Junior Teams</text><text x="1162.563" y="962.76" stroke="none" clip-path="url(#clipPath2)" xml:space="preserve">&lt;ResultsList&gt;</text><ellipse cx="1206.689" cy="950.192" fill="none" clip-path="url(#clipPath2)" rx="76.25" ry="29.5"/></g><g fill="#F99" stroke="#F99" shape-rendering="geometricPrecision" text-rendering="geometricPrecision" transform="matrix(1,0,0,1,55,-430)"><ellipse cx="1026.689" cy="950.192" stroke="none" clip-path="url(#clipPath2)" rx="76.25" ry="29.5"/></g><g stroke-linecap="butt" stroke-miterlimit="1.45" font-family="sans-serif" font-size="13" shape-rendering="geometricPrecision" text-rendering="geometricPrecision" transform="matrix(1,0,0,1,55,-430)"><text x="985.308" y="947.45" stroke="none" clip-path="url(#clipPath2)" xml:space="preserve">Junior Teams</text><text x="990.653" y="962.76" stroke="none" clip-path="url(#clipPath2)" xml:space="preserve">&lt;StartList&gt;</text><ellipse cx="1026.689" cy="950.192" fill="none" clip-path="url(#clipPath2)" rx="76.25" ry="29.5"/></g><g fill="#F99" stroke="#F99" shape-rendering="geometricPrecision" text-rendering="geometricPrecision" transform="matrix(1,0,0,1,55,-430)"><ellipse cx="1656.689" cy="662.596" stroke="none" clip-path="url(#clipPath2)" rx="64.75" ry="22.5"/></g><g stroke-linecap="butt" stroke-miterlimit="1.45" font-family="sans-serif" font-size="13" shape-rendering="geometricPrecision" text-rendering="geometricPrecision" transform="matrix(1,0,0,1,55,-430)"><text x="1607.199" y="659.854" stroke="none" clip-path="url(#clipPath2)" xml:space="preserve">S1 JR - Athletes</text><text x="1612.563" y="675.164" stroke="none" clip-path="url(#clipPath2)" xml:space="preserve">&lt;ResultsList&gt;</text><ellipse cx="1656.689" cy="662.596" fill="none" clip-path="url(#clipPath2)" rx="64.75" ry="22.5"/></g><g fill="#F99" stroke="#F99" shape-rendering="geometricPrecision" text-rendering="geometricPrecision" transform="matrix(1,0,0,1,55,-430)"><ellipse cx="1656.689" cy="764.846" stroke="none" clip-path="url(#clipPath2)" rx="64.75" ry="22.5"/></g><g stroke-linecap="butt" stroke-miterlimit="1.45" font-family="sans-serif" font-size="13" shape-rendering="geometricPrecision" text-rendering="geometricPrecision" transform="matrix(1,0,0,1,55,-430)"><text x="1607.199" y="762.104" stroke="none" clip-path="url(#clipPath2)" xml:space="preserve">S2 JR - Athletes</text><text x="1612.563" y="777.414" stroke="none" clip-path="url(#clipPath2)" xml:space="preserve">&lt;ResultsList&gt;</text><ellipse cx="1656.689" cy="764.846" fill="none" clip-path="url(#clipPath2)" rx="64.75" ry="22.5"/></g><g fill="#F99" stroke="#F99" shape-rendering="geometricPrecision" text-rendering="geometricPrecision" transform="matrix(1,0,0,1,55,-430)"><ellipse cx="1656.689" cy="866.846" stroke="none" clip-path="url(#clipPath2)" rx="64.75" ry="22.5"/></g><g stroke-linecap="butt" stroke-miterlimit="1.45" font-family="sans-serif" font-size="13" shape-rendering="geometricPrecision" text-rendering="geometricPrecision" transform="matrix(1,0,0,1,55,-430)"><text x="1607.199" y="864.104" stroke="none" clip-path="url(#clipPath2)" xml:space="preserve">S3 JR - Athletes</text><text x="1612.563" y="879.414" stroke="none" clip-path="url(#clipPath2)" xml:space="preserve">&lt;ResultsList&gt;</text><ellipse cx="1656.689" cy="866.846" fill="none" clip-path="url(#clipPath2)" rx="64.75" ry="22.5"/></g><g fill="#F99" stroke="#F99" shape-rendering="geometricPrecision" text-rendering="geometricPrecision" transform="matrix(1,0,0,1,55,-430)"><ellipse cx="1656.689" cy="968.846" stroke="none" clip-path="url(#clipPath2)" rx="64.75" ry="22.5"/></g><g stroke-linecap="butt" stroke-miterlimit="1.45" font-family="sans-serif" font-size="13" shape-rendering="geometricPrecision" text-rendering="geometricPrecision" transform="matrix(1,0,0,1,55,-430)"><text x="1607.199" y="966.104" stroke="none" clip-path="url(#clipPath2)" xml:space="preserve">S6 JR - Athletes</text><text x="1612.563" y="981.414" stroke="none" clip-path="url(#clipPath2)" xml:space="preserve">&lt;ResultsList&gt;</text><ellipse cx="1656.689" cy="968.846" fill="none" clip-path="url(#clipPath2)" rx="64.75" ry="22.5"/><path fill="none" d="M749.8926 506.3241 L379.4275 634.7211" clip-path="url(#clipPath2)"/><path stroke="none" d="M371.8686 637.3408 L384.8443 638.1355 L380.3724 634.3936 L381.5696 628.6869 Z" clip-path="url(#clipPath2)"/><text x="388.521" y="595.264" stroke="none" clip-path="url(#clipPath2)" font-size="12" xml:space="preserve">subEvent</text><path fill="none" d="M404.25 662.5959 L465.25 662.5959" clip-path="url(#clipPath2)"/><path stroke="none" d="M473.25 662.5959 L461.25 657.5959 L464.25 662.5959 L461.25 667.5959 Z" clip-path="url(#clipPath2)"/><text x="413.797" y="637.131" stroke="none" clip-path="url(#clipPath2)" font-size="12" xml:space="preserve">subEvent</text><path fill="none" d="M367.0588 689.2938 L488.5099 736.9361" clip-path="url(#clipPath2)"/><path stroke="none" d="M495.9574 739.8575 L486.6121 730.8207 L487.579 736.5709 L482.9603 740.1301 Z" clip-path="url(#clipPath2)"/><text x="413.797" y="722.451" stroke="none" clip-path="url(#clipPath2)" font-size="12" xml:space="preserve">subEvent</text><path fill="none" d="M549.5 692.0959 L549.5 723.361" clip-path="url(#clipPath2)"/><path stroke="none" d="M549.5 731.361 L554.5 719.361 L549.5 722.361 L544.5 719.361 Z" clip-path="url(#clipPath2)"/><text x="550.637" y="710.697" stroke="none" clip-path="url(#clipPath2)" font-size="12" xml:space="preserve">nextStage</text><path fill="none" d="M340.0741 694.8207 L509.4823 827.7302" clip-path="url(#clipPath2)"/><path stroke="none" d="M515.7764 832.6682 L509.4215 821.3273 L508.6955 827.1129 L503.249 829.1949 Z" clip-path="url(#clipPath2)"/><text x="424.679" y="786.309" stroke="none" clip-path="url(#clipPath2)" font-size="12" xml:space="preserve">subEvent</text><path fill="none" d="M549.5 790.361 L549.5 821.6262" clip-path="url(#clipPath2)"/><path stroke="none" d="M549.5 829.6262 L554.5 817.6262 L549.5 820.6262 L544.5 817.6262 Z" clip-path="url(#clipPath2)"/><text x="550.637" y="814.529" stroke="none" clip-path="url(#clipPath2)" font-size="12" xml:space="preserve">nextStage</text><path fill="none" d="M328.2819 696.2141 L519.8961 916.2039" clip-path="url(#clipPath2)"/><path stroke="none" d="M525.1505 922.2364 L521.0392 909.9036 L519.2393 915.4498 L513.4985 916.4716 Z" clip-path="url(#clipPath2)"/><text x="395.115" y="853.266" stroke="none" clip-path="url(#clipPath2)" font-size="12" xml:space="preserve">subEvent</text><path fill="none" d="M549.5 888.6262 L549.5 912.6918" clip-path="url(#clipPath2)"/><path stroke="none" d="M549.5 920.6918 L554.5 908.6918 L549.5 911.6918 L544.5 908.6918 Z" clip-path="url(#clipPath2)"/><text x="550.637" y="909.194" stroke="none" clip-path="url(#clipPath2)" font-size="12" xml:space="preserve">nextStage</text><path fill="none" d="M222.0573 686.4773 L115.6163 719.5144" clip-path="url(#clipPath2)"/><path stroke="none" d="M107.9759 721.8858 L120.9187 723.104 L116.5714 719.218 L117.9544 713.5534 Z" clip-path="url(#clipPath2)"/><text x="131.75" y="711.285" stroke="none" clip-path="url(#clipPath2)" font-size="12" xml:space="preserve">category</text><path fill="none" d="M193.75 662.5959 L132.75 662.5959" clip-path="url(#clipPath2)"/><path stroke="none" d="M124.75 662.5959 L136.75 667.5959 L133.75 662.5959 L136.75 657.5959 Z" clip-path="url(#clipPath2)"/><text x="130.561" y="637.131" stroke="none" clip-path="url(#clipPath2)" font-size="12" xml:space="preserve">discipline</text><path fill="none" d="M300.2777 697.5933 L308.1312 912.7001" clip-path="url(#clipPath2)"/><path stroke="none" d="M308.4231 920.6948 L312.9819 908.5203 L308.0947 911.7007 L302.9886 908.8852 Z" clip-path="url(#clipPath2)"/><text x="317.628" y="892.42" stroke="none" clip-path="url(#clipPath2)" font-size="12" xml:space="preserve">results</text><path fill="none" d="M278.7572 696.9424 L150.5133 914.538" clip-path="url(#clipPath2)"/><path stroke="none" d="M146.4513 921.43 L156.8518 913.6307 L151.021 913.6765 L148.2367 908.5532 Z" clip-path="url(#clipPath2)"/><text x="111.575" y="886.095" stroke="none" clip-path="url(#clipPath2)" font-size="12" xml:space="preserve">startList</text><path fill="none" d="M625.75 662.5959 L686.75 662.5959" clip-path="url(#clipPath2)"/><path stroke="none" d="M694.75 662.5959 L682.75 657.5959 L685.75 662.5959 L682.75 667.5959 Z" clip-path="url(#clipPath2)"/><text x="640.633" y="667.131" stroke="none" clip-path="url(#clipPath2)" font-size="12" xml:space="preserve">results</text><path fill="none" d="M625.6584 762.3062 L686.8478 763.4673" clip-path="url(#clipPath2)"/><path stroke="none" d="M694.8463 763.619 L682.9433 758.3923 L685.848 763.4483 L682.7537 768.3905 Z" clip-path="url(#clipPath2)"/><text x="640.633" y="767.498" stroke="none" clip-path="url(#clipPath2)" font-size="12" xml:space="preserve">results</text><path fill="none" d="M625.4081 861.9166 L687.1147 864.1849" clip-path="url(#clipPath2)"/><path stroke="none" d="M695.1093 864.4788 L683.3011 859.0414 L686.1154 864.1482 L682.9337 869.0346 Z" clip-path="url(#clipPath2)"/><text x="640.633" y="867.732" stroke="none" clip-path="url(#clipPath2)" font-size="12" xml:space="preserve">results</text><path fill="none" d="M623.8163 956.7932 L688.7986 962.5656" clip-path="url(#clipPath2)"/><path stroke="none" d="M696.7673 963.2734 L685.2567 957.2313 L687.8026 962.4771 L684.3719 967.192 Z" clip-path="url(#clipPath2)"/><text x="640.633" y="964.565" stroke="none" clip-path="url(#clipPath2)" font-size="12" xml:space="preserve">results</text><path fill="none" d="M886.2877 509.8006 L1130.161 630.0413" clip-path="url(#clipPath2)"/><path stroke="none" d="M1137.3363 633.579 L1128.7844 623.7878 L1129.2642 629.5991 L1124.3623 632.757 Z" clip-path="url(#clipPath2)"/><text x="1098.3" y="598.35" stroke="none" clip-path="url(#clipPath2)" font-size="12" xml:space="preserve">subEvent</text><path fill="none" d="M1301.4387 662.5959 L1362.4387 662.5959" clip-path="url(#clipPath2)"/><path stroke="none" d="M1370.4387 662.5959 L1358.4387 657.5959 L1361.4387 662.5959 L1358.4387 667.5959 Z" clip-path="url(#clipPath2)"/><text x="1310.986" y="637.131" stroke="none" clip-path="url(#clipPath2)" font-size="12" xml:space="preserve">subEvent</text><path fill="none" d="M1264.2476 689.2938 L1385.6986 736.9361" clip-path="url(#clipPath2)"/><path stroke="none" d="M1393.1461 739.8575 L1383.8008 730.8207 L1384.7677 736.5709 L1380.1489 740.1301 Z" clip-path="url(#clipPath2)"/><text x="1356.216" y="707.968" stroke="none" clip-path="url(#clipPath2)" font-size="12" xml:space="preserve">subEvent</text><path fill="none" d="M1446.6887 692.0959 L1446.6887 723.361" clip-path="url(#clipPath2)"/><path stroke="none" d="M1446.6887 731.361 L1451.6887 719.361 L1446.6887 722.361 L1441.6887 719.361 Z" clip-path="url(#clipPath2)"/><path fill="none" d="M1237.2628 694.8207 L1406.671 827.7302" clip-path="url(#clipPath2)"/><path stroke="none" d="M1412.9651 832.6682 L1406.6102 821.3273 L1405.8843 827.1129 L1400.4376 829.1949 Z" clip-path="url(#clipPath2)"/><text x="1347.629" y="806.52" stroke="none" clip-path="url(#clipPath2)" font-size="12" xml:space="preserve">subEvent</text><path fill="none" d="M1225.4706 696.2141 L1417.0847 916.2039" clip-path="url(#clipPath2)"/><path stroke="none" d="M1422.3391 922.2364 L1418.2279 909.9036 L1416.428 915.4498 L1410.6873 916.4716 Z" clip-path="url(#clipPath2)"/><text x="1342.731" y="911.16" stroke="none" clip-path="url(#clipPath2)" font-size="12" xml:space="preserve">subEvent</text><path fill="none" d="M1119.246 686.4773 L1012.805 719.5144" clip-path="url(#clipPath2)"/><path stroke="none" d="M1005.1646 721.8858 L1018.1074 723.104 L1013.7601 719.218 L1015.1431 713.5534 Z" clip-path="url(#clipPath2)"/><text x="1028.939" y="711.285" stroke="none" clip-path="url(#clipPath2)" font-size="12" xml:space="preserve">category</text><path fill="none" d="M1090.9387 662.5959 L1029.9387 662.5959" clip-path="url(#clipPath2)"/><path stroke="none" d="M1021.9387 662.5959 L1033.9387 667.5959 L1030.9387 662.5959 L1033.9387 657.5959 Z" clip-path="url(#clipPath2)"/><text x="1027.75" y="637.131" stroke="none" clip-path="url(#clipPath2)" font-size="12" xml:space="preserve">discipline</text><path fill="none" d="M1197.4664 697.5933 L1205.3199 912.7001" clip-path="url(#clipPath2)"/><path stroke="none" d="M1205.6118 920.6948 L1210.1707 908.5203 L1205.2834 911.7007 L1200.1774 908.8852 Z" clip-path="url(#clipPath2)"/><text x="1214.817" y="892.42" stroke="none" clip-path="url(#clipPath2)" font-size="12" xml:space="preserve">results</text><path fill="none" d="M1175.9459 696.9424 L1047.7019 914.538" clip-path="url(#clipPath2)"/><path stroke="none" d="M1043.64 921.4301 L1054.0404 913.6306 L1048.2097 913.6765 L1045.4253 908.5532 Z" clip-path="url(#clipPath2)"/><text x="1008.764" y="886.095" stroke="none" clip-path="url(#clipPath2)" font-size="12" xml:space="preserve">startList</text><path fill="none" d="M1522.9387 662.5959 L1583.9387 662.5959" clip-path="url(#clipPath2)"/><path stroke="none" d="M1591.9387 662.5959 L1579.9387 657.5959 L1582.9387 662.5959 L1579.9387 667.5959 Z" clip-path="url(#clipPath2)"/><text x="1537.822" y="667.131" stroke="none" clip-path="url(#clipPath2)" font-size="12" xml:space="preserve">results</text><path fill="none" d="M1522.8472 762.3062 L1584.0365 763.4673" clip-path="url(#clipPath2)"/><path stroke="none" d="M1592.035 763.619 L1580.1321 758.3923 L1583.0366 763.4483 L1579.9424 768.3905 Z" clip-path="url(#clipPath2)"/><text x="1537.822" y="767.498" stroke="none" clip-path="url(#clipPath2)" font-size="12" xml:space="preserve">results</text><path fill="none" d="M1522.5968 861.9166 L1584.3035 864.1849" clip-path="url(#clipPath2)"/><path stroke="none" d="M1592.2981 864.4788 L1580.4899 859.0414 L1583.3042 864.1482 L1580.1226 869.0346 Z" clip-path="url(#clipPath2)"/><text x="1537.822" y="867.732" stroke="none" clip-path="url(#clipPath2)" font-size="12" xml:space="preserve">results</text><path fill="none" d="M1521.005 956.7932 L1585.9873 962.5656" clip-path="url(#clipPath2)"/><path stroke="none" d="M1593.9559 963.2734 L1582.4454 957.2313 L1584.9912 962.4771 L1581.5605 967.192 Z" clip-path="url(#clipPath2)"/><text x="1537.822" y="964.565" stroke="none" clip-path="url(#clipPath2)" font-size="12" xml:space="preserve">results</text></g></g></svg>