<svg xmlns="http://www.w3.org/2000/svg" xmlns:xlink="http://www.w3.org/1999/xlink" width="954" height="727" fill="#000" fill-opacity="1" stroke="#000" stroke-dasharray="none" stroke-dashoffset="0" stroke-linecap="square" stroke-linejoin="miter" stroke-miterlimit="10" stroke-opacity="1" stroke-width="1" color-interpolation="auto" color-rendering="auto" font-family="'Dialog'" font-size="12" font-style="normal" font-weight="normal" image-rendering="auto" shape-rendering="auto" text-rendering="auto"><g><defs id="defs1"><clipPath id="clipPath1" clipPathUnits="userSpaceOnUse"><path d="M0 0 L954 0 L954 727 L0 727 L0 0 Z"/></clipPath><clipPath id="clipPath2" clipPathUnits="userSpaceOnUse"><path d="M385 9 L1339 9 L1339 736 L385 736 L385 9 Z"/></clipPath></defs><g fill="#fff" stroke="#fff" shape-rendering="geometricPrecision" text-rendering="geometricPrecision" transform="translate(-385,-9)"><rect width="954" height="727" x="385" y="9" stroke="none" clip-path="url(#clipPath2)"/></g><g fill="#FF9" stroke="#FF9" shape-rendering="geometricPrecision" text-rendering="geometricPrecision" transform="matrix(1,0,0,1,-385,-9)"><ellipse cx="911" cy="54.5" stroke="none" clip-path="url(#clipPath2)" rx="90" ry="30.5"/></g><g stroke-linecap="butt" stroke-miterlimit="1.45" font-family="sans-serif" font-size="13" shape-rendering="geometricPrecision" text-rendering="geometricPrecision" transform="matrix(1,0,0,1,-385,-9)"><text x="830.582" y="51.758" stroke="none" clip-path="url(#clipPath2)" xml:space="preserve">European Championships</text><text x="843.153" y="67.068" stroke="none" clip-path="url(#clipPath2)" xml:space="preserve">&lt;CompetitionSeries&gt;</text><ellipse cx="911" cy="54.5" fill="none" clip-path="url(#clipPath2)" rx="90" ry="30.5"/></g><g fill="#FF9" stroke="#FF9" shape-rendering="geometricPrecision" text-rendering="geometricPrecision" transform="matrix(1,0,0,1,-385,-9)"><ellipse cx="911" cy="150" stroke="none" clip-path="url(#clipPath2)" rx="90" ry="30.5"/></g><g stroke-linecap="butt" stroke-miterlimit="1.45" font-family="sans-serif" font-size="13" shape-rendering="geometricPrecision" text-rendering="geometricPrecision" transform="matrix(1,0,0,1,-385,-9)"><text x="856.175" y="147.258" stroke="none" clip-path="url(#clipPath2)" xml:space="preserve">Amsterdam 2016</text><text x="861.749" y="162.568" stroke="none" clip-path="url(#clipPath2)" xml:space="preserve">&lt;Competition&gt;</text><ellipse cx="911" cy="150" fill="none" clip-path="url(#clipPath2)" rx="90" ry="30.5"/></g><g fill="#FF9" stroke="#FF9" shape-rendering="geometricPrecision" text-rendering="geometricPrecision" transform="matrix(1,0,0,1,-385,-9)"><ellipse cx="911" cy="259.5" stroke="none" clip-path="url(#clipPath2)" rx="90" ry="30.5"/></g><g stroke-linecap="butt" stroke-miterlimit="1.45" font-family="sans-serif" font-size="13" shape-rendering="geometricPrecision" text-rendering="geometricPrecision" transform="matrix(1,0,0,1,-385,-9)"><text x="875.856" y="256.758" stroke="none" clip-path="url(#clipPath2)" xml:space="preserve">100m Male</text><text x="861.749" y="272.068" stroke="none" clip-path="url(#clipPath2)" xml:space="preserve">&lt;Competition&gt;</text><ellipse cx="911" cy="259.5" fill="none" clip-path="url(#clipPath2)" rx="90" ry="30.5"/></g><g fill="#FC9" stroke="#FC9" shape-rendering="geometricPrecision" text-rendering="geometricPrecision" transform="matrix(1,0,0,1,-385,-9)"><ellipse cx="466" cy="510" stroke="none" clip-path="url(#clipPath2)" rx="65.5" ry="30.5"/></g><g stroke-linecap="butt" stroke-miterlimit="1.45" font-family="sans-serif" font-size="13" shape-rendering="geometricPrecision" text-rendering="geometricPrecision" transform="matrix(1,0,0,1,-385,-9)"><text x="408.865" y="507.258" stroke="none" clip-path="url(#clipPath2)" xml:space="preserve">100m R1 - Heat 1</text><text x="403.901" y="522.568" stroke="none" clip-path="url(#clipPath2)" xml:space="preserve">&lt;UnitCompetition&gt;</text><ellipse cx="466" cy="510" fill="none" clip-path="url(#clipPath2)" rx="65.5" ry="30.5"/></g><g fill="#FF9" stroke="#FF9" shape-rendering="geometricPrecision" text-rendering="geometricPrecision" transform="matrix(1,0,0,1,-385,-9)"><ellipse cx="614" cy="395.5" stroke="none" clip-path="url(#clipPath2)" rx="90" ry="30.5"/></g><g stroke-linecap="butt" stroke-miterlimit="1.45" font-family="sans-serif" font-size="13" shape-rendering="geometricPrecision" text-rendering="geometricPrecision" transform="matrix(1,0,0,1,-385,-9)"><text x="567.116" y="392.758" stroke="none" clip-path="url(#clipPath2)" xml:space="preserve">100m Round 1</text><text x="583.404" y="408.068" stroke="none" clip-path="url(#clipPath2)" xml:space="preserve">&lt;Round&gt;</text><ellipse cx="614" cy="395.5" fill="none" clip-path="url(#clipPath2)" rx="90" ry="30.5"/></g><g fill="#FF9" stroke="#FF9" shape-rendering="geometricPrecision" text-rendering="geometricPrecision" transform="matrix(1,0,0,1,-385,-9)"><ellipse cx="911" cy="395.5" stroke="none" clip-path="url(#clipPath2)" rx="90" ry="30.5"/></g><g stroke-linecap="butt" stroke-miterlimit="1.45" font-family="sans-serif" font-size="13" shape-rendering="geometricPrecision" text-rendering="geometricPrecision" transform="matrix(1,0,0,1,-385,-9)"><text x="858.391" y="392.758" stroke="none" clip-path="url(#clipPath2)" xml:space="preserve">100m Semifinals</text><text x="880.404" y="408.068" stroke="none" clip-path="url(#clipPath2)" xml:space="preserve">&lt;Round&gt;</text><ellipse cx="911" cy="395.5" fill="none" clip-path="url(#clipPath2)" rx="90" ry="30.5"/></g><g fill="#FC9" stroke="#FC9" shape-rendering="geometricPrecision" text-rendering="geometricPrecision" transform="matrix(1,0,0,1,-385,-9)"><ellipse cx="556" cy="570" stroke="none" clip-path="url(#clipPath2)" rx="65.5" ry="30.5"/></g><g stroke-linecap="butt" stroke-miterlimit="1.45" font-family="sans-serif" font-size="13" shape-rendering="geometricPrecision" text-rendering="geometricPrecision" transform="matrix(1,0,0,1,-385,-9)"><text x="498.865" y="567.258" stroke="none" clip-path="url(#clipPath2)" xml:space="preserve">100m R1 - Heat 2</text><text x="493.901" y="582.568" stroke="none" clip-path="url(#clipPath2)" xml:space="preserve">&lt;UnitCompetition&gt;</text><ellipse cx="556" cy="570" fill="none" clip-path="url(#clipPath2)" rx="65.5" ry="30.5"/></g><g fill="#FC9" stroke="#FC9" shape-rendering="geometricPrecision" text-rendering="geometricPrecision" transform="matrix(1,0,0,1,-385,-9)"><ellipse cx="646" cy="630" stroke="none" clip-path="url(#clipPath2)" rx="65.5" ry="30.5"/></g><g stroke-linecap="butt" stroke-miterlimit="1.45" font-family="sans-serif" font-size="13" shape-rendering="geometricPrecision" text-rendering="geometricPrecision" transform="matrix(1,0,0,1,-385,-9)"><text x="588.865" y="627.258" stroke="none" clip-path="url(#clipPath2)" xml:space="preserve">100m R1 - Heat 3</text><text x="583.901" y="642.568" stroke="none" clip-path="url(#clipPath2)" xml:space="preserve">&lt;UnitCompetition&gt;</text><ellipse cx="646" cy="630" fill="none" clip-path="url(#clipPath2)" rx="65.5" ry="30.5"/></g><g fill="#FC9" stroke="#FC9" shape-rendering="geometricPrecision" text-rendering="geometricPrecision" transform="matrix(1,0,0,1,-385,-9)"><ellipse cx="736" cy="690" stroke="none" clip-path="url(#clipPath2)" rx="65.5" ry="30.5"/></g><g stroke-linecap="butt" stroke-miterlimit="1.45" font-family="sans-serif" font-size="13" shape-rendering="geometricPrecision" text-rendering="geometricPrecision" transform="matrix(1,0,0,1,-385,-9)"><text x="678.865" y="687.258" stroke="none" clip-path="url(#clipPath2)" xml:space="preserve">100m R1 - Heat 4</text><text x="673.901" y="702.568" stroke="none" clip-path="url(#clipPath2)" xml:space="preserve">&lt;UnitCompetition&gt;</text><ellipse cx="736" cy="690" fill="none" clip-path="url(#clipPath2)" rx="65.5" ry="30.5"/></g><g fill="#FC9" stroke="#FC9" shape-rendering="geometricPrecision" text-rendering="geometricPrecision" transform="matrix(1,0,0,1,-385,-9)"><ellipse cx="821" cy="510" stroke="none" clip-path="url(#clipPath2)" rx="65.5" ry="30.5"/></g><g stroke-linecap="butt" stroke-miterlimit="1.45" font-family="sans-serif" font-size="13" shape-rendering="geometricPrecision" text-rendering="geometricPrecision" transform="matrix(1,0,0,1,-385,-9)"><text x="761.129" y="507.258" stroke="none" clip-path="url(#clipPath2)" xml:space="preserve">100m Semi-Heat 1</text><text x="758.901" y="522.568" stroke="none" clip-path="url(#clipPath2)" xml:space="preserve">&lt;UnitCompetition&gt;</text><ellipse cx="821" cy="510" fill="none" clip-path="url(#clipPath2)" rx="65.5" ry="30.5"/></g><g fill="#FC9" stroke="#FC9" shape-rendering="geometricPrecision" text-rendering="geometricPrecision" transform="matrix(1,0,0,1,-385,-9)"><ellipse cx="911" cy="570" stroke="none" clip-path="url(#clipPath2)" rx="65.5" ry="30.5"/></g><g stroke-linecap="butt" stroke-miterlimit="1.45" font-family="sans-serif" font-size="13" shape-rendering="geometricPrecision" text-rendering="geometricPrecision" transform="matrix(1,0,0,1,-385,-9)"><text x="851.129" y="567.258" stroke="none" clip-path="url(#clipPath2)" xml:space="preserve">100m Semi-Heat 2</text><text x="848.901" y="582.568" stroke="none" clip-path="url(#clipPath2)" xml:space="preserve">&lt;UnitCompetition&gt;</text><ellipse cx="911" cy="570" fill="none" clip-path="url(#clipPath2)" rx="65.5" ry="30.5"/></g><g fill="#FC9" stroke="#FC9" shape-rendering="geometricPrecision" text-rendering="geometricPrecision" transform="matrix(1,0,0,1,-385,-9)"><ellipse cx="1001" cy="630" stroke="none" clip-path="url(#clipPath2)" rx="65.5" ry="30.5"/></g><g stroke-linecap="butt" stroke-miterlimit="1.45" font-family="sans-serif" font-size="13" shape-rendering="geometricPrecision" text-rendering="geometricPrecision" transform="matrix(1,0,0,1,-385,-9)"><text x="941.129" y="627.258" stroke="none" clip-path="url(#clipPath2)" xml:space="preserve">100m Semi-Heat 3</text><text x="938.901" y="642.568" stroke="none" clip-path="url(#clipPath2)" xml:space="preserve">&lt;UnitCompetition&gt;</text><ellipse cx="1001" cy="630" fill="none" clip-path="url(#clipPath2)" rx="65.5" ry="30.5"/></g><g fill="#FF9" stroke="#FF9" shape-rendering="geometricPrecision" text-rendering="geometricPrecision" transform="matrix(1,0,0,1,-385,-9)"><ellipse cx="1208" cy="395.5" stroke="none" clip-path="url(#clipPath2)" rx="90" ry="30.5"/></g><g stroke-linecap="butt" stroke-miterlimit="1.45" font-family="sans-serif" font-size="13" shape-rendering="geometricPrecision" text-rendering="geometricPrecision" transform="matrix(1,0,0,1,-385,-9)"><text x="1172.678" y="392.758" stroke="none" clip-path="url(#clipPath2)" xml:space="preserve">100m Final</text><text x="1177.404" y="408.068" stroke="none" clip-path="url(#clipPath2)" xml:space="preserve">&lt;Round&gt;</text><ellipse cx="1208" cy="395.5" fill="none" clip-path="url(#clipPath2)" rx="90" ry="30.5"/></g><g fill="#FC9" stroke="#FC9" shape-rendering="geometricPrecision" text-rendering="geometricPrecision" transform="matrix(1,0,0,1,-385,-9)"><ellipse cx="1208" cy="510" stroke="none" clip-path="url(#clipPath2)" rx="65.5" ry="30.5"/></g><g stroke-linecap="butt" stroke-miterlimit="1.45" font-family="sans-serif" font-size="13" shape-rendering="geometricPrecision" text-rendering="geometricPrecision" transform="matrix(1,0,0,1,-385,-9)"><text x="1172.678" y="507.258" stroke="none" clip-path="url(#clipPath2)" xml:space="preserve">100m Final</text><text x="1145.901" y="522.568" stroke="none" clip-path="url(#clipPath2)" xml:space="preserve">&lt;UnitCompetition&gt;</text><ellipse cx="1208" cy="510" fill="none" clip-path="url(#clipPath2)" rx="65.5" ry="30.5"/><path fill="none" d="M911 85 L911 111.5" clip-path="url(#clipPath2)"/><path stroke="none" d="M911 119.5 L916 107.5 L911 110.5 L906 107.5 Z" clip-path="url(#clipPath2)"/><text x="854.773" y="103.602" stroke="none" clip-path="url(#clipPath2)" font-size="12" xml:space="preserve">subEvent</text><path fill="none" d="M911 180.5 L911 221" clip-path="url(#clipPath2)"/><path stroke="none" d="M911 229 L916 217 L911 220 L906 217 Z" clip-path="url(#clipPath2)"/><text x="854.773" y="209.285" stroke="none" clip-path="url(#clipPath2)" font-size="12" xml:space="preserve">subEvent</text><path fill="none" d="M911 290 L911 318 L609 318 L609 357.0374" clip-path="url(#clipPath2)"/><path stroke="none" d="M609 365.0374 L614 353.0374 L609 356.0374 L604 353.0374 Z" clip-path="url(#clipPath2)"/><text x="561.636" y="339.002" stroke="none" clip-path="url(#clipPath2)" font-size="12" xml:space="preserve">round</text><path fill="none" d="M614 426 L614 450 L466 450 L466 471.5" clip-path="url(#clipPath2)"/><path stroke="none" d="M466 479.5 L471 467.5 L466 470.5 L461 467.5 Z" clip-path="url(#clipPath2)"/><text x="418.65" y="442.252" stroke="none" clip-path="url(#clipPath2)" font-size="12" xml:space="preserve">unitCompetition</text><path fill="none" d="M911 290 L911 357" clip-path="url(#clipPath2)"/><path stroke="none" d="M911 365 L916 353 L911 356 L906 353 Z" clip-path="url(#clipPath2)"/><text x="863.636" y="343.585" stroke="none" clip-path="url(#clipPath2)" font-size="12" xml:space="preserve">round</text><path fill="none" d="M614 426 L614 450 L570 450 L570 532.2051" clip-path="url(#clipPath2)"/><path stroke="none" d="M570 540.2051 L575 528.2051 L570 531.2051 L565 528.2051 Z" clip-path="url(#clipPath2)"/><text x="552.65" y="513.969" stroke="none" clip-path="url(#clipPath2)" font-size="12" xml:space="preserve">unitCompetition</text><path fill="none" d="M614 426 L614 450 L646 450 L646 591.5" clip-path="url(#clipPath2)"/><path stroke="none" d="M646 599.5 L651 587.5 L646 590.5 L641 587.5 Z" clip-path="url(#clipPath2)"/><text x="628.65" y="589.969" stroke="none" clip-path="url(#clipPath2)" font-size="12" xml:space="preserve">unitCompetition</text><path fill="none" d="M614 426 L614 450 L736 450 L736 651.5" clip-path="url(#clipPath2)"/><path stroke="none" d="M736 659.5 L741 647.5 L736 650.5 L731 647.5 Z" clip-path="url(#clipPath2)"/><text x="754.65" y="648.969" stroke="none" clip-path="url(#clipPath2)" font-size="12" xml:space="preserve">unitCompetition</text><path fill="none" d="M911 426 L911 450 L821 450 L821 471.5" clip-path="url(#clipPath2)"/><path stroke="none" d="M821 479.5 L826 467.5 L821 470.5 L816 467.5 Z" clip-path="url(#clipPath2)"/><text x="803.65" y="469.969" stroke="none" clip-path="url(#clipPath2)" font-size="12" xml:space="preserve">unitCompetition</text><path fill="none" d="M911 426 L911 531.5" clip-path="url(#clipPath2)"/><path stroke="none" d="M911 539.5 L916 527.5 L911 530.5 L906 527.5 Z" clip-path="url(#clipPath2)"/><text x="893.65" y="529.969" stroke="none" clip-path="url(#clipPath2)" font-size="12" xml:space="preserve">unitCompetition</text><path fill="none" d="M911 426.0232 L911 450 L1001 450 L1001 591.5" clip-path="url(#clipPath2)"/><path stroke="none" d="M1001 599.5 L1006 587.5 L1001 590.5 L996 587.5 Z" clip-path="url(#clipPath2)"/><text x="1024.65" y="589.969" stroke="none" clip-path="url(#clipPath2)" font-size="12" xml:space="preserve">unitCompetition</text><path fill="none" d="M911 290 L911 318 L1208 318 L1208 357" clip-path="url(#clipPath2)"/><path stroke="none" d="M1208 365 L1213 353 L1208 356 L1203 353 Z" clip-path="url(#clipPath2)"/><text x="1220.636" y="355.469" stroke="none" clip-path="url(#clipPath2)" font-size="12" xml:space="preserve">round</text><path fill="none" d="M1208 426 L1208 471.5" clip-path="url(#clipPath2)"/><path stroke="none" d="M1208 479.5 L1213 467.5 L1208 470.5 L1203 467.5 Z" clip-path="url(#clipPath2)"/><text x="1226.65" y="467.285" stroke="none" clip-path="url(#clipPath2)" font-size="12" xml:space="preserve">unitCompetition</text></g></g></svg>